<?xml version="1.0" encoding="UTF-8"?>
<svg width="353px" height="81px" viewBox="0 0 353 81" version="1.1" xmlns="http://www.w3.org/2000/svg" xmlns:xlink="http://www.w3.org/1999/xlink">
    <!-- Generator: Sketch 43.1 (39012) - http://www.bohemiancoding.com/sketch -->
    <title>element-logo-small</title>
    <desc>Created with Sketch.</desc>
    <defs></defs>
    <g id="Page-1" stroke="none" stroke-width="1" fill="none" fill-rule="evenodd">
        <g id="element-logo-small" fill-rule="nonzero" fill="#FFFFFF">
            <path d="M65.632,80.26 L69.595,80.26 L73.171,80.26 C75.365,80.26 77.143,78.487 77.143,76.293 L77.143,69.154 C77.143,69.114 77.133,69.072 77.133,69.026 C77.2,66.886 78.952,65.172 81.101,65.172 L81.122,65.172 L84.703,65.172 L88.666,65.172 C88.707,65.172 88.743,65.172 88.785,65.162 C90.918,65.228 92.639,66.98 92.639,69.129 L92.639,69.154 L92.639,69.154 L92.639,76.293 C92.639,78.486 94.412,80.26 96.606,80.26 L104.161,80.26 C106.346,80.26 108.123,78.487 108.123,76.293 L108.123,69.154 C108.123,69.114 108.118,69.072 108.118,69.026 C108.18,66.886 109.932,65.172 112.081,65.172 L112.101,65.172 L115.687,65.172 L119.645,65.172 C121.835,65.172 123.618,63.395 123.618,61.199 L123.618,54.066 C123.618,51.873 121.835,50.084 119.645,50.084 L114.873,50.084 L112.101,50.084 C109.906,50.084 108.123,48.311 108.123,46.116 L108.123,42.519 L108.123,38.969 C108.123,36.773 106.346,35.001 104.161,35.001 L96.606,35.001 C94.412,35.001 92.639,36.773 92.639,38.969 L92.639,46.101 L92.639,46.229 C92.582,48.368 90.83,50.08 88.672,50.08 L85.075,50.08 L85.075,50.084 L81.122,50.084 C78.927,50.084 77.143,51.873 77.143,54.066 L77.143,61.199 C77.143,61.245 77.154,61.281 77.154,61.322 C77.087,63.456 75.34,65.172 73.187,65.172 L69.584,65.172 L69.584,65.182 L68.404,65.182 L65.632,65.182 C63.438,65.182 61.654,63.405 61.654,61.209 L61.654,57.613 L61.654,54.066 C61.654,51.873 59.871,50.084 57.681,50.084 L50.137,50.084 C47.942,50.084 46.164,51.873 46.164,54.066 L46.164,61.199 C46.164,63.394 47.942,65.172 50.137,65.172 L57.681,65.172 C57.723,65.172 57.764,65.172 57.81,65.162 C59.937,65.228 61.654,66.98 61.654,69.129 L61.654,69.154 L61.654,69.154 L61.654,74.308 L27.892,74.308 C15.83,74.308 6.049,64.528 6.049,52.464 C6.049,40.396 15.83,30.615 27.892,30.615 L35.442,30.615 C36.457,30.615 37.93,29.409 37.827,28.229 C37.827,16.161 47.597,6.386 59.671,6.386 C71.734,6.386 81.509,16.161 81.509,28.229 L81.509,28.631 C81.555,29.955 83.05,31.011 84.492,31.011 C85.934,31.011 87.378,29.987 87.656,28.62 C87.656,28.62 87.667,28.363 87.667,28.228 C87.667,12.873 75.217,0.428 59.871,0.428 C45.726,0.428 34.055,10.99 32.303,24.657 L27.495,24.657 L27.495,24.672 C12.418,24.992 0.287,37.302 0.287,52.463 C0.287,67.746 12.628,80.15 27.891,80.258 L27.891,80.258 L65.632,80.258 L65.632,80.26 Z M96.597,50.08 L96.607,50.08 L100.199,50.08 L104.162,50.08 C104.193,50.08 104.229,50.074 104.275,50.074 C106.414,50.136 108.125,51.883 108.125,54.036 L108.125,54.062 L108.125,54.066 L108.125,61.199 C108.125,61.24 108.136,61.281 108.136,61.322 C108.069,63.456 106.317,65.172 104.163,65.172 L100.572,65.172 L100.572,65.182 L99.386,65.182 L96.608,65.182 C94.414,65.182 92.641,63.405 92.641,61.209 L92.641,57.613 L92.641,54.066 C92.641,54.016 92.636,53.979 92.636,53.938 C92.696,51.801 94.442,50.08 96.597,50.08 Z" id="Shape"></path>
            <g id="Group" transform="translate(137.000000, 24.000000)">
                <path d="M63.839,30.438 L63.839,12.454 L3.187,12.454 L3.187,30.438 L3.187,30.477 L28.958,30.477 L28.958,44.002 C28.958,46.868 28.458,48.286 27.474,49.152 C26.481,50.017 24.974,50.474 22.968,50.508 L22.968,55.337 C28.175,55.169 31.989,54.042 34.407,51.937 C36.816,49.837 38.033,46.615 38.033,42.296 L38.033,30.476 L63.838,30.476 L63.838,30.438 L63.839,30.438 Z M55.096,25.43 L11.94,25.43 L11.94,17.502 L55.095,17.502 L55.095,25.43 L55.096,25.43 Z" id="Shape"></path>
                <polygon id="Shape" points="66.051 3.984 38.069 3.984 38.069 0.139 28.959 0.139 28.959 3.984 0.986 3.984 0.986 9.034 66.051 9.034"></polygon>
                <polygon id="Shape" points="0.986 55.338 6.148 55.338 17.87 35.685 8.668 35.685"></polygon>
                <polygon id="Shape" points="49.17 35.685 60.889 55.338 66.05 55.338 58.367 35.685"></polygon>
                <polygon id="Shape" points="124.096 35.98 135.816 55.634 140.977 55.634 133.295 35.98"></polygon>
                <polygon id="Shape" points="75.583 55.634 80.748 55.634 92.468 35.982 83.267 35.982"></polygon>
                <path d="M98.961,0.435 L89.846,0.435 L88.329,4.28 L75.582,4.28 L75.582,9.331 L86.326,9.331 L77.812,30.773 L104.218,30.773 L104.218,44.299 C104.218,47.29 103.716,48.582 102.731,49.448 C101.732,50.314 100.23,50.767 98.224,50.804 L98.224,55.633 C103.43,55.466 107.236,54.339 109.659,52.234 C112.074,50.134 113.292,46.911 113.292,42.591 L113.292,30.772 L138.439,30.772 L138.439,30.531 L138.439,25.726 L113.292,25.726 L113.292,17.798 L104.219,17.798 L104.219,25.726 L89.413,25.726 L95.488,9.33 L140.976,9.33 L140.976,4.279 L97.461,4.279 L98.961,0.435 Z" id="Shape"></path>
                <rect id="Rectangle-path" x="157.888" y="4.288" width="51.248" height="5.387"></rect>
                <polygon id="Shape" points="177.396 31.016 215.904 31.016 215.904 25.672 151.253 25.672 151.253 31.016 165.916 31.016 154.32 48.708 154.314 48.708 154.314 48.716 154.312 48.719 154.314 48.719 154.252 55.158 205.17 52.054 207.719 56.331 213.262 56.331 205.703 36.994 196.188 36.994 201.963 46.678 162.914 48.34"></polygon>
            </g>
        </g>
    </g>
</svg>